<svg width="24" height="24" viewBox="0 0 24 24" fill="none" xmlns="http://www.w3.org/2000/svg">
<path d="M13.4 21.9001L12 20.5001L15.55 16.9501L7.04998 8.4501L3.49998 12.0001L2.09998 10.6001L3.49998 9.1501L2.09998 7.7501L4.19998 5.6501L2.79998 4.2001L4.19998 2.8001L5.64998 4.2001L7.74998 2.1001L9.14998 3.5001L10.6 2.1001L12 3.5001L8.44998 7.0501L16.95 15.5501L20.5 12.0001L21.9 13.4001L20.5 14.8501L21.9 16.2501L19.8 18.3501L21.2 19.8001L19.8 21.2001L18.35 19.8001L16.25 21.9001L14.85 20.5001L13.4 21.9001Z" fill="white"/>
</svg>
