<svg width="30" height="30" viewBox="0 0 30 30" fill="none" xmlns="http://www.w3.org/2000/svg">
<path d="M9.59999 1.80005C5.29948 1.80005 1.79999 5.29954 1.79999 9.60005V20.4C1.79999 24.7006 5.29948 28.2001 9.59999 28.2001H20.4C24.7005 28.2001 28.2 24.7006 28.2 20.4V9.60005C28.2 5.29954 24.7005 1.80005 20.4 1.80005H9.59999ZM9.59999 3.00005H20.4C24.0519 3.00005 27 5.94816 27 9.60005V20.4C27 24.0519 24.0519 27 20.4 27H9.59999C5.9481 27 2.99999 24.0519 2.99999 20.4V9.60005C2.99999 5.94816 5.9481 3.00005 9.59999 3.00005ZM22.2 6.60005C21.8817 6.60005 21.5765 6.72648 21.3515 6.95152C21.1264 7.17656 21 7.48179 21 7.80005C21 8.11831 21.1264 8.42353 21.3515 8.64858C21.5765 8.87362 21.8817 9.00005 22.2 9.00005C22.5182 9.00005 22.8235 8.87362 23.0485 8.64858C23.2736 8.42353 23.4 8.11831 23.4 7.80005C23.4 7.48179 23.2736 7.17656 23.0485 6.95152C22.8235 6.72648 22.5182 6.60005 22.2 6.60005ZM15 8.40005C11.362 8.40005 8.39999 11.3621 8.39999 15C8.39999 18.638 11.362 21.6 15 21.6C18.638 21.6 21.6 18.638 21.6 15C21.6 11.3621 18.638 8.40005 15 8.40005ZM15 9.60005C17.9894 9.60005 20.4 12.0106 20.4 15C20.4 17.9895 17.9894 20.4 15 20.4C12.0105 20.4 9.59999 17.9895 9.59999 15C9.59999 12.0106 12.0105 9.60005 15 9.60005Z" fill="#F5F7FA" stroke="#F5F7FA"/>
</svg>
