<svg width="128" height="49" viewBox="0 0 128 49" fill="none" xmlns="http://www.w3.org/2000/svg">
<path d="M49.096 8.84802V10.032H46.056V20H44.6V10.032H41.544V8.84802H49.096Z" fill="#061D38"/>
<path d="M52.3443 12.656C52.6003 12.1547 52.9629 11.7654 53.4323 11.488C53.9123 11.2107 54.4936 11.072 55.1763 11.072V12.576H54.7923C53.1603 12.576 52.3443 13.4613 52.3443 15.232V20H50.8883V11.232H52.3443V12.656Z" fill="#061D38"/>
<path d="M64.857 15.28C64.857 15.5574 64.841 15.8507 64.809 16.16H57.801C57.8543 17.024 58.1477 17.7013 58.681 18.192C59.225 18.672 59.881 18.912 60.649 18.912C61.2783 18.912 61.801 18.768 62.217 18.48C62.6437 18.1814 62.9423 17.7867 63.113 17.296H64.681C64.4463 18.1387 63.977 18.8267 63.273 19.36C62.569 19.8827 61.6943 20.144 60.649 20.144C59.817 20.144 59.0703 19.9574 58.409 19.584C57.7583 19.2107 57.2463 18.6827 56.873 18C56.4997 17.3067 56.313 16.5067 56.313 15.6C56.313 14.6933 56.4943 13.8987 56.857 13.216C57.2197 12.5333 57.7263 12.0107 58.377 11.648C59.0383 11.2747 59.7957 11.088 60.649 11.088C61.481 11.088 62.217 11.2694 62.857 11.632C63.497 11.9947 63.9877 12.496 64.329 13.136C64.681 13.7654 64.857 14.48 64.857 15.28ZM63.353 14.976C63.353 14.4214 63.2303 13.9467 62.985 13.552C62.7397 13.1467 62.4037 12.8427 61.977 12.64C61.561 12.4267 61.097 12.32 60.585 12.32C59.849 12.32 59.2197 12.5547 58.697 13.024C58.185 13.4933 57.8917 14.144 57.817 14.976H63.353Z" fill="#061D38"/>
<path d="M67.5309 9.80802C67.2536 9.80802 67.0189 9.71202 66.8269 9.52002C66.6349 9.32802 66.5389 9.09335 66.5389 8.81602C66.5389 8.53868 66.6349 8.30402 66.8269 8.11202C67.0189 7.92002 67.2536 7.82402 67.5309 7.82402C67.7976 7.82402 68.0216 7.92002 68.2029 8.11202C68.3949 8.30402 68.4909 8.53868 68.4909 8.81602C68.4909 9.09335 68.3949 9.32802 68.2029 9.52002C68.0216 9.71202 67.7976 9.80802 67.5309 9.80802ZM68.2349 11.232V20H66.7789V11.232H68.2349Z" fill="#061D38"/>
<path d="M74.9884 11.072C76.0551 11.072 76.9191 11.3973 77.5804 12.048C78.2417 12.688 78.5724 13.616 78.5724 14.832V20H77.1324V15.04C77.1324 14.1654 76.9137 13.4987 76.4764 13.04C76.0391 12.5707 75.4417 12.336 74.6844 12.336C73.9164 12.336 73.3031 12.576 72.8444 13.056C72.3964 13.536 72.1724 14.2347 72.1724 15.152V20H70.7164V11.232H72.1724V12.48C72.4604 12.032 72.8497 11.6854 73.3404 11.44C73.8417 11.1947 74.3911 11.072 74.9884 11.072Z" fill="#061D38"/>
<path d="M80.4068 15.584C80.4068 14.688 80.5881 13.904 80.9508 13.232C81.3134 12.5493 81.8094 12.0214 82.4388 11.648C83.0788 11.2747 83.7881 11.088 84.5668 11.088C85.3348 11.088 86.0014 11.2533 86.5668 11.584C87.1321 11.9147 87.5534 12.3307 87.8308 12.832V11.232H89.3028V20H87.8308V18.368C87.5428 18.88 87.1108 19.3067 86.5348 19.648C85.9694 19.9787 85.3081 20.144 84.5508 20.144C83.7721 20.144 83.0681 19.952 82.4388 19.568C81.8094 19.184 81.3134 18.6454 80.9508 17.952C80.5881 17.2587 80.4068 16.4694 80.4068 15.584ZM87.8308 15.6C87.8308 14.9387 87.6974 14.3627 87.4308 13.872C87.1641 13.3814 86.8014 13.008 86.3428 12.752C85.8948 12.4854 85.3988 12.352 84.8548 12.352C84.3108 12.352 83.8148 12.48 83.3668 12.736C82.9188 12.992 82.5614 13.3654 82.2948 13.856C82.0281 14.3467 81.8948 14.9227 81.8948 15.584C81.8948 16.256 82.0281 16.8427 82.2948 17.344C82.5614 17.8347 82.9188 18.2134 83.3668 18.48C83.8148 18.736 84.3108 18.864 84.8548 18.864C85.3988 18.864 85.8948 18.736 86.3428 18.48C86.8014 18.2134 87.1641 17.8347 87.4308 17.344C87.6974 16.8427 87.8308 16.2613 87.8308 15.6Z" fill="#061D38"/>
<path d="M91.2193 15.584C91.2193 14.688 91.4006 13.904 91.7633 13.232C92.1259 12.5493 92.6219 12.0214 93.2513 11.648C93.8913 11.2747 94.6059 11.088 95.3953 11.088C96.0779 11.088 96.7126 11.248 97.2993 11.568C97.8859 11.8774 98.3339 12.288 98.6433 12.8V8.16002H100.115V20H98.6433V18.352C98.3553 18.8747 97.9286 19.3067 97.3633 19.648C96.7979 19.9787 96.1366 20.144 95.3793 20.144C94.6006 20.144 93.8913 19.952 93.2513 19.568C92.6219 19.184 92.1259 18.6454 91.7633 17.952C91.4006 17.2587 91.2193 16.4694 91.2193 15.584ZM98.6433 15.6C98.6433 14.9387 98.5099 14.3627 98.2433 13.872C97.9766 13.3814 97.6139 13.008 97.1553 12.752C96.7073 12.4854 96.2113 12.352 95.6673 12.352C95.1233 12.352 94.6273 12.48 94.1793 12.736C93.7313 12.992 93.3739 13.3654 93.1073 13.856C92.8406 14.3467 92.7073 14.9227 92.7073 15.584C92.7073 16.256 92.8406 16.8427 93.1073 17.344C93.3739 17.8347 93.7313 18.2134 94.1793 18.48C94.6273 18.736 95.1233 18.864 95.6673 18.864C96.2113 18.864 96.7073 18.736 97.1553 18.48C97.6139 18.2134 97.9766 17.8347 98.2433 17.344C98.5099 16.8427 98.6433 16.2613 98.6433 15.6Z" fill="#061D38"/>
<path d="M106.4 20.144C105.578 20.144 104.832 19.9574 104.16 19.584C103.498 19.2107 102.976 18.6827 102.592 18C102.218 17.3067 102.032 16.5067 102.032 15.6C102.032 14.704 102.224 13.9147 102.608 13.232C103.002 12.5387 103.536 12.0107 104.208 11.648C104.88 11.2747 105.632 11.088 106.464 11.088C107.296 11.088 108.048 11.2747 108.72 11.648C109.392 12.0107 109.92 12.5333 110.304 13.216C110.698 13.8987 110.896 14.6933 110.896 15.6C110.896 16.5067 110.693 17.3067 110.288 18C109.893 18.6827 109.354 19.2107 108.672 19.584C107.989 19.9574 107.232 20.144 106.4 20.144ZM106.4 18.864C106.922 18.864 107.413 18.7414 107.872 18.496C108.33 18.2507 108.698 17.8827 108.976 17.392C109.264 16.9014 109.408 16.304 109.408 15.6C109.408 14.896 109.269 14.2987 108.992 13.808C108.714 13.3174 108.352 12.9547 107.904 12.72C107.456 12.4747 106.97 12.352 106.448 12.352C105.914 12.352 105.424 12.4747 104.976 12.72C104.538 12.9547 104.186 13.3174 103.92 13.808C103.653 14.2987 103.52 14.896 103.52 15.6C103.52 16.3147 103.648 16.9173 103.904 17.408C104.17 17.8987 104.522 18.2667 104.96 18.512C105.397 18.7467 105.877 18.864 106.4 18.864Z" fill="#061D38"/>
<path d="M114.266 12.656C114.522 12.1547 114.885 11.7654 115.354 11.488C115.834 11.2107 116.415 11.072 117.098 11.072V12.576H116.714C115.082 12.576 114.266 13.4613 114.266 15.232V20H112.81V11.232H114.266V12.656Z" fill="#061D38"/>
<path d="M51.736 25.664V48H47.256V38.496H37.688V48H33.208V25.664H37.688V34.848H47.256V25.664H51.736Z" fill="#061D38"/>
<path d="M72.6255 38.752C72.6255 39.392 72.5828 39.968 72.4975 40.48H59.5375C59.6442 41.76 60.0922 42.7627 60.8815 43.488C61.6708 44.2134 62.6415 44.576 63.7935 44.576C65.4575 44.576 66.6415 43.8614 67.3455 42.432H72.1775C71.6655 44.1387 70.6842 45.5467 69.2335 46.656C67.7828 47.744 66.0015 48.288 63.8895 48.288C62.1828 48.288 60.6468 47.9147 59.2815 47.168C57.9375 46.4 56.8815 45.3227 56.1135 43.936C55.3668 42.5493 54.9935 40.9494 54.9935 39.136C54.9935 37.3014 55.3668 35.6907 56.1135 34.304C56.8602 32.9173 57.9055 31.8507 59.2495 31.104C60.5935 30.3574 62.1402 29.984 63.8895 29.984C65.5748 29.984 67.0788 30.3467 68.4015 31.072C69.7455 31.7973 70.7802 32.832 71.5055 34.176C72.2522 35.4987 72.6255 37.024 72.6255 38.752ZM67.9855 37.472C67.9642 36.32 67.5482 35.4027 66.7375 34.72C65.9268 34.016 64.9348 33.664 63.7615 33.664C62.6522 33.664 61.7135 34.0053 60.9455 34.688C60.1988 35.3493 59.7402 36.2773 59.5695 37.472H67.9855Z" fill="#061D38"/>
<path d="M78.1675 28.16C77.3782 28.16 76.7168 27.9147 76.1835 27.424C75.6715 26.912 75.4155 26.2827 75.4155 25.536C75.4155 24.7893 75.6715 24.1707 76.1835 23.68C76.7168 23.168 77.3782 22.912 78.1675 22.912C78.9568 22.912 79.6075 23.168 80.1195 23.68C80.6528 24.1707 80.9195 24.7893 80.9195 25.536C80.9195 26.2827 80.6528 26.912 80.1195 27.424C79.6075 27.9147 78.9568 28.16 78.1675 28.16ZM80.3755 30.272V48H75.8955V30.272H80.3755Z" fill="#061D38"/>
<path d="M90.0178 33.952V42.528C90.0178 43.1253 90.1564 43.5627 90.4338 43.84C90.7324 44.096 91.2231 44.224 91.9058 44.224H93.9858V48H91.1698C87.3938 48 85.5058 46.1654 85.5058 42.496V33.952H83.3938V30.272H85.5058V25.888H90.0178V30.272H93.9858V33.952H90.0178Z" fill="#061D38"/>
<path d="M105.08 48.288C103.373 48.288 101.837 47.9147 100.472 47.168C99.1067 46.4 98.0293 45.3227 97.24 43.936C96.472 42.5493 96.088 40.9494 96.088 39.136C96.088 37.3227 96.4827 35.7227 97.272 34.336C98.0827 32.9494 99.1813 31.8827 100.568 31.136C101.955 30.368 103.501 29.984 105.208 29.984C106.915 29.984 108.461 30.368 109.848 31.136C111.235 31.8827 112.323 32.9494 113.112 34.336C113.923 35.7227 114.328 37.3227 114.328 39.136C114.328 40.9494 113.912 42.5493 113.08 43.936C112.269 45.3227 111.16 46.4 109.752 47.168C108.365 47.9147 106.808 48.288 105.08 48.288ZM105.08 44.384C105.891 44.384 106.648 44.192 107.352 43.808C108.077 43.4027 108.653 42.8054 109.08 42.016C109.507 41.2267 109.72 40.2667 109.72 39.136C109.72 37.4507 109.272 36.16 108.376 35.264C107.501 34.3467 106.424 33.888 105.144 33.888C103.864 33.888 102.787 34.3467 101.912 35.264C101.059 36.16 100.632 37.4507 100.632 39.136C100.632 40.8214 101.048 42.1227 101.88 43.04C102.733 43.936 103.8 44.384 105.08 44.384Z" fill="#061D38"/>
<path d="M122.094 33.024C122.67 32.0854 123.417 31.3493 124.334 30.816C125.273 30.2827 126.34 30.016 127.534 30.016V34.72H126.35C124.942 34.72 123.876 35.0507 123.15 35.712C122.446 36.3734 122.094 37.5253 122.094 39.168V48H117.614V30.272H122.094V33.024Z" fill="#061D38"/>
<path d="M0.64769 40.0658V36.1885H10.4794V12.6477H0.64769V8.7704L4.59423 8.70116V4.82386H10.4102L10.4794 0.877319H14.3567L14.426 4.82386H20.2419V8.70116L24.1885 8.7704V12.6477H14.3567V36.1885H24.1885V40.0658L20.2419 40.135V44.0123H14.426L14.3567 47.9588H10.4794L10.4102 44.0123H4.59423V40.135L0.64769 40.0658Z" fill="#061D38"/>
</svg>
